<?xml version="1.0" encoding="UTF-8"?>
<svg width="80px" height="49px" viewBox="0 0 80 49" version="1.1" xmlns="http://www.w3.org/2000/svg" xmlns:xlink="http://www.w3.org/1999/xlink">
    <!-- Generator: Sketch 53 (72520) - https://sketchapp.com -->
    <title>Logo</title>
    <desc>Created with Sketch.</desc>
    <g id="Symbols" stroke="none" stroke-width="1" fill="none" fill-rule="evenodd">
        <g id="Logo" fill="#004F79">
            <g>
                <path d="M28.3647059,38.9837647 L24.2249412,39.1296471 L24.2249412,31.4021176 L28.6527059,31.1098824 C31.3788235,30.9291765 32.9322353,31.9738824 32.9322353,34.7254118 C32.9322353,37.4021176 31.4108235,38.8807059 28.3647059,38.9837647 M34.2249412,34.6421176 C34.2249412,30.8910588 31.8174118,29.6058824 28.6997647,29.8171765 L22.9703529,30.1988235 L22.9703529,48.6185882 L24.2249412,48.6185882 L24.2249412,40.3263529 L28.7162353,40.1785882 L32.6527059,48.6185882 L34.0602353,48.6185882 L30.0484706,39.9931765 C32.6616471,39.4261176 34.2249412,37.6604706 34.2249412,34.6421176" id="Fill-1"></path>
                <path d="M43.0163765,47.6207059 C39.3824941,47.6357647 36.8544941,44.3665882 36.8544941,38.9378824 C36.8544941,33.5087059 39.3566118,30.1712941 42.9636706,29.9402353 C46.6615529,29.7044706 49.4224941,32.8903529 49.4224941,38.5585882 C49.4224941,44.2268235 46.7424941,47.6065882 43.0163765,47.6207059 M42.9966118,28.6663529 C38.5895529,28.9651765 35.5373176,33.0508235 35.5373176,39.032 C35.5373176,45.0141176 38.5377882,48.8917647 42.9434353,48.8917647 C47.4846118,48.8917647 50.7928471,44.7529412 50.7928471,38.4578824 C50.7928471,32.1623529 47.5392,28.3585882 42.9966118,28.6663529" id="Fill-3"></path>
                <path d="M58.9196235,38.5267294 L54.3709176,38.6853176 L54.3709176,29.4208471 L59.2725647,29.0975529 C62.6636235,28.8726118 64.4650353,30.1276706 64.4650353,33.4688471 C64.4650353,36.5761412 62.6824471,38.3954353 58.9196235,38.5267294 M59.3332706,27.7549647 L52.9685647,28.1836706 L52.9685647,48.6184941 L54.3709176,48.6184941 L54.3709176,40.0015529 L58.9196235,39.8632 C63.2984471,39.7290824 65.9088,37.4824941 65.9088,33.3394353 C65.9088,29.0759059 63.2810353,27.4890824 59.3332706,27.7549647" id="Fill-5"></path>
                <polygon id="Fill-7" points="1.18870588 40.2018353 7.52329412 39.9961882 7.52329412 38.7660706 1.18870588 38.9971294 1.18870588 32.9858353 8.48235294 32.5039529 8.48235294 31.1764235 0 31.7472471 0 48.6183059 8.79529412 48.6183059 8.79529412 47.3731294 1.18870588 47.4023059"></polygon>
                <polygon id="Fill-9" points="67.5919529 48.6184 79.8168941 48.6184 79.8168941 47.1016941 69.0385412 47.1426353 69.0385412 37.9939294 78.3011294 37.6833412 78.3011294 36.1821647 69.0385412 36.5200471 69.0385412 28.5078118 79.8168941 27.7958118 79.8168941 26.3765176 67.5919529 27.1986353"></polygon>
                <path d="M19.5549647,41.5889882 C19.5549647,45.6144 18.3046118,47.7174588 15.3864941,47.7278118 C12.5290824,47.7395765 11.3460235,45.7249882 11.3460235,41.6647529 L11.3460235,30.9838118 L10.1229647,31.0656941 L10.1229647,41.9005176 C10.1229647,46.5951059 11.9097882,48.8920471 15.3417882,48.8920471 C18.8872,48.8920471 20.8015529,46.4779294 20.8015529,41.5960471 L20.8015529,30.3471059 L19.5549647,30.4308706 L19.5549647,41.5889882 Z" id="Fill-11"></path>
                <polygon id="Fill-14" points="8.68367059 17.2700706 15.0615529 27.4841882 18.1566118 27.2296 18.1566118 9.00042353 14.6215529 9.51665882 14.6215529 20.3590118 8.44743529 10.4178353 5.25778824 10.8837176 5.25778824 28.2893647 8.68367059 28.0079529"></polygon>
                <polygon id="Fill-16" points="27.7923294 26.4382588 33.9184471 6.70037647 29.6845647 7.31825882 26.2135059 20.2514353 22.6963294 8.33802353 18.8737412 8.89567059 24.6045647 26.6999059"></polygon>
                <polygon id="Fill-18" points="47.1441412 20.9637647 38.7384941 21.7802353 38.7384941 17.4550588 45.6834353 16.7063529 45.6834353 12.8738824 38.7384941 13.7087059 38.7384941 9.77223529 47.1441412 8.60094118 47.1441412 4.76894118 34.8279059 6.56752941 34.8279059 25.8602353 47.1441412 24.8484706"></polygon>
                <polygon id="Fill-20" points="62.9685647 2.45962353 62.9685647 6.39562353 69.1445647 5.53727059 69.1445647 23.0408 73.1408 22.7128 73.1408 4.97774118 79.8170353 4.05021176 79.8170353 -0.000141176471"></polygon>
                <polygon id="Fill-23" points="3.42169412 11.1517176 4.70588236e-05 11.6514824 4.70588236e-05 28.7216 3.42169412 28.4401882"></polygon>
                <path d="M54.3328,20.6579294 C52.8339765,20.6579294 51.3182118,19.8974588 50.1723294,19.1920471 L48.2683294,22.6678118 C50.0485647,24.0249882 51.7939765,24.6776941 54.1742118,24.6776941 C59.0222118,24.6776941 62.4462118,21.6979294 62.4462118,17.6781647 C62.4462118,10.5209882 53.0984471,12.2485176 53.0984471,9.19863529 C53.0984471,7.64757647 54.8617412,6.90687059 56.2363294,6.90687059 C57.6113882,6.90687059 58.5280941,7.30922353 59.8862118,8.13745882 L61.9130353,4.77369412 C60.1153882,3.46922353 58.6165647,3.06310588 56.5539765,3.06310588 C52.8170353,3.06310588 48.6208,5.49698824 48.6208,9.74545882 C48.6208,16.7445176 57.6650353,14.5402824 57.6650353,18.2249882 C57.6650353,20.0409882 55.8306824,20.6579294 54.3328,20.6579294" id="Fill-25"></path>
            </g>
        </g>
    </g>
</svg>